<svg width="160" height="26" viewBox="0 0 160 26" fill="none" xmlns="http://www.w3.org/2000/svg">
<path d="M2.59521 11.6421C2.3374 11.1157 2.07959 10.7612 1.82178 10.5786C1.56396 10.396 1.22021 10.2832 0.790527 10.2402C0.554199 10.2188 0.398438 10.1758 0.323242 10.1113C0.248047 10.0361 0.210449 9.88037 0.210449 9.64404C0.210449 9.50439 0.26416 9.35938 0.371582 9.20898C0.468262 9.05859 0.597168 8.9834 0.758301 8.9834H9.92676C10.0986 8.9834 10.2329 9.05859 10.3296 9.20898C10.4263 9.34863 10.4746 9.49365 10.4746 9.64404C10.4746 9.82666 10.437 9.96631 10.3618 10.063C10.2866 10.1597 10.147 10.2188 9.94287 10.2402C9.24463 10.3262 8.75049 10.4067 8.46045 10.4819C8.17041 10.5571 8.02539 10.6968 8.02539 10.9009L12.3599 20.875L16.4365 10.9492C16.4365 10.7236 16.2539 10.5679 15.8887 10.4819C15.5234 10.3853 15.0347 10.3047 14.4224 10.2402C14.2183 10.2188 14.0786 10.1597 14.0034 10.063C13.9282 9.96631 13.8906 9.82666 13.8906 9.64404C13.8906 9.49365 13.939 9.34863 14.0356 9.20898C14.1323 9.05859 14.2666 8.9834 14.4385 8.9834H20.3198C20.481 8.9834 20.6099 9.05859 20.7065 9.20898C20.814 9.35938 20.8677 9.50439 20.8677 9.64404C20.8677 9.88037 20.8301 10.0361 20.7549 10.1113C20.6797 10.1758 20.5239 10.2188 20.2876 10.2402C19.8257 10.2832 19.439 10.4014 19.1274 10.5947C18.8267 10.7773 18.5581 11.1265 18.3218 11.6421L12.2148 25.145H9.18555L2.59521 11.6421ZM21.4316 25C21.2598 25 21.1255 24.9302 21.0288 24.7905C20.9321 24.6401 20.8838 24.4897 20.8838 24.3394C20.8838 24.1567 20.9214 24.0171 20.9966 23.9204C21.0825 23.813 21.2222 23.7539 21.4155 23.7432C21.9204 23.7002 22.3555 23.6143 22.7207 23.4854C23.0859 23.3457 23.2686 23.1416 23.2686 22.873L23.2847 12.4639C23.2847 11.9697 23.1934 11.5938 23.0107 11.3359C22.8389 11.0781 22.6294 10.9062 22.3823 10.8203C22.146 10.7344 21.8345 10.6646 21.4478 10.6108C21.1147 10.5571 20.9268 10.5249 20.8838 10.5142C20.7549 10.4604 20.6582 10.3853 20.5938 10.2886C20.5293 10.1919 20.4971 10.0522 20.4971 9.86963C20.4971 9.71924 20.5293 9.56885 20.5938 9.41846C20.6689 9.25732 20.7656 9.17139 20.8838 9.16064C23.2686 9.01025 25.605 8.93506 27.8931 8.93506C28.0112 8.93506 28.1187 8.98877 28.2153 9.09619C28.3228 9.19287 28.3765 9.354 28.3765 9.57959V22.3413C28.3765 22.7173 28.4731 23.0073 28.6665 23.2114C28.8706 23.4048 29.1016 23.5337 29.3594 23.5981C29.6172 23.6519 29.9448 23.7002 30.3423 23.7432C30.5786 23.7646 30.7344 23.813 30.8096 23.8882C30.8848 23.9526 30.9224 24.103 30.9224 24.3394C30.9224 24.479 30.8687 24.624 30.7612 24.7744C30.6646 24.9248 30.5356 25 30.3745 25H21.4316ZM25.7178 6.14746C25.1592 6.14746 24.6489 6.02393 24.187 5.77686C23.7251 5.51904 23.3599 5.16992 23.0913 4.72949C22.8228 4.27832 22.6885 3.76807 22.6885 3.19873C22.6885 2.62939 22.8228 2.11914 23.0913 1.66797C23.3599 1.2168 23.7251 0.867676 24.187 0.620605C24.6489 0.362793 25.1592 0.233887 25.7178 0.233887C26.2656 0.233887 26.7705 0.362793 27.2324 0.620605C27.6943 0.867676 28.0596 1.2168 28.3281 1.66797C28.6074 2.11914 28.7471 2.62939 28.7471 3.19873C28.7471 3.76807 28.6074 4.27832 28.3281 4.72949C28.0596 5.16992 27.6943 5.51904 27.2324 5.77686C26.7705 6.02393 26.2656 6.14746 25.7178 6.14746ZM32.9849 11.6421C32.7271 11.1157 32.4692 10.7612 32.2114 10.5786C31.9536 10.396 31.6099 10.2832 31.1802 10.2402C30.9438 10.2188 30.7881 10.1758 30.7129 10.1113C30.6377 10.0361 30.6001 9.88037 30.6001 9.64404C30.6001 9.50439 30.6538 9.35938 30.7612 9.20898C30.8579 9.05859 30.9868 8.9834 31.1479 8.9834H40.3164C40.4883 8.9834 40.6226 9.05859 40.7192 9.20898C40.8159 9.34863 40.8643 9.49365 40.8643 9.64404C40.8643 9.82666 40.8267 9.96631 40.7515 10.063C40.6763 10.1597 40.5366 10.2188 40.3325 10.2402C39.6343 10.3262 39.1401 10.4067 38.8501 10.4819C38.5601 10.5571 38.415 10.6968 38.415 10.9009L42.7495 20.875L46.8262 10.9492C46.8262 10.7236 46.6436 10.5679 46.2783 10.4819C45.9131 10.3853 45.4243 10.3047 44.812 10.2402C44.6079 10.2188 44.4683 10.1597 44.3931 10.063C44.3179 9.96631 44.2803 9.82666 44.2803 9.64404C44.2803 9.49365 44.3286 9.34863 44.4253 9.20898C44.522 9.05859 44.6562 8.9834 44.8281 8.9834H50.7095C50.8706 8.9834 50.9995 9.05859 51.0962 9.20898C51.2036 9.35938 51.2573 9.50439 51.2573 9.64404C51.2573 9.88037 51.2197 10.0361 51.1445 10.1113C51.0693 10.1758 50.9136 10.2188 50.6772 10.2402C50.2153 10.2832 49.8286 10.4014 49.5171 10.5947C49.2163 10.7773 48.9478 11.1265 48.7114 11.6421L42.6045 25.145H39.5752L32.9849 11.6421ZM51.6763 21.1006C51.6763 19.7793 52.1812 18.7212 53.1909 17.9263C54.2114 17.1313 55.4468 16.5566 56.897 16.2021C58.3579 15.8369 60.0068 15.5576 61.8438 15.3643V12.7056C61.8438 11.7495 61.6396 11.0942 61.2314 10.7397C60.834 10.3745 60.2378 10.1919 59.4429 10.1919C58.519 10.1919 57.9067 10.2832 57.606 10.4658L55.0439 14.7681C54.2812 14.7681 53.6528 14.5586 53.1587 14.1396C52.6753 13.71 52.4336 13.1621 52.4336 12.4961C52.4336 11.6367 52.8418 10.9224 53.6582 10.353C54.4854 9.77295 55.4897 9.34863 56.6714 9.08008C57.8638 8.80078 59.0186 8.66113 60.1357 8.66113C61.7256 8.66113 63.0415 8.85449 64.0835 9.24121C65.1255 9.61719 65.8936 10.1436 66.3877 10.8203C66.8818 11.4863 67.1289 12.2598 67.1289 13.1406V21.8096C67.1289 22.2285 67.188 22.583 67.3062 22.873C67.4243 23.1523 67.5693 23.292 67.7412 23.292C67.8701 23.292 68.1655 23.2437 68.6274 23.147L69.0464 23.0825C69.2183 23.0825 69.3418 23.1792 69.417 23.3726C69.4922 23.5552 69.5298 23.7646 69.5298 24.001C69.5298 24.1406 69.4976 24.2373 69.4331 24.291C69.2612 24.4092 68.9497 24.5542 68.4985 24.7261C68.0581 24.8979 67.4941 25.0537 66.8066 25.1934C66.1299 25.333 65.394 25.4028 64.5991 25.4028C63.7935 25.4028 63.208 25.2632 62.8428 24.9839C62.4775 24.7046 62.2681 24.436 62.2144 24.1782C62.1714 23.9204 62.1499 23.6089 62.1499 23.2437V23.1953C61.4624 23.915 60.6299 24.4629 59.6523 24.8389C58.6855 25.2041 57.6274 25.3867 56.478 25.3867C55.7583 25.3867 55.0278 25.2363 54.2866 24.9355C53.5454 24.6348 52.9224 24.1621 52.4175 23.5176C51.9233 22.873 51.6763 22.0674 51.6763 21.1006ZM57.1387 20.9395C57.1387 21.5195 57.3213 22.019 57.6865 22.438C58.0625 22.8569 58.5835 23.0664 59.2495 23.0664C60.313 23.0664 61.1777 22.6582 61.8438 21.8418V16.6533C60.9307 16.793 60.1411 16.9863 59.4751 17.2334C58.8198 17.4805 58.2666 17.8994 57.8154 18.4902C57.3643 19.0811 57.1387 19.8975 57.1387 20.9395ZM71.3667 11.6421C71.1089 11.1157 70.8511 10.7612 70.5933 10.5786C70.3354 10.396 69.9917 10.2832 69.562 10.2402C69.3257 10.2188 69.1699 10.1758 69.0947 10.1113C69.0195 10.0361 68.9819 9.88037 68.9819 9.64404C68.9819 9.50439 69.0356 9.35938 69.1431 9.20898C69.2397 9.05859 69.3687 8.9834 69.5298 8.9834H78.6982C78.8701 8.9834 79.0044 9.05859 79.1011 9.20898C79.1978 9.34863 79.2461 9.49365 79.2461 9.64404C79.2461 9.82666 79.2085 9.96631 79.1333 10.063C79.0581 10.1597 78.9185 10.2188 78.7144 10.2402C78.0161 10.3262 77.522 10.4067 77.2319 10.4819C76.9419 10.5571 76.7969 10.6968 76.7969 10.9009L81.1313 20.875L85.208 10.9492C85.208 10.7236 85.0254 10.5679 84.6602 10.4819C84.2949 10.3853 83.8062 10.3047 83.1938 10.2402C82.9897 10.2188 82.8501 10.1597 82.7749 10.063C82.6997 9.96631 82.6621 9.82666 82.6621 9.64404C82.6621 9.49365 82.7104 9.34863 82.8071 9.20898C82.9038 9.05859 83.0381 8.9834 83.21 8.9834H89.0913C89.2524 8.9834 89.3813 9.05859 89.478 9.20898C89.5854 9.35938 89.6392 9.50439 89.6392 9.64404C89.6392 9.88037 89.6016 10.0361 89.5264 10.1113C89.4512 10.1758 89.2954 10.2188 89.0591 10.2402C88.5972 10.2832 88.2104 10.4014 87.8989 10.5947C87.5981 10.7773 87.3296 11.1265 87.0933 11.6421L80.9863 25.145H77.957L71.3667 11.6421ZM98.8398 25.4673C95.7139 25.4673 93.3936 24.7314 91.8789 23.2598C90.3643 21.7881 89.6069 19.6719 89.6069 16.9111C89.6069 15.1816 90.0098 13.6938 90.8154 12.4478C91.6318 11.2017 92.7222 10.2617 94.0864 9.62793C95.4507 8.9834 96.9492 8.66113 98.582 8.66113C100.967 8.66113 102.745 9.12842 103.916 10.063C105.086 10.9868 105.822 12.3457 106.123 14.1396C106.22 14.7197 106.268 15.606 106.268 16.7983L95.0854 16.8145C95.0854 18.3721 95.3271 19.6343 95.8105 20.6011C96.3047 21.5679 96.9277 22.2607 97.6797 22.6797C98.4316 23.0986 99.2266 23.3081 100.064 23.3081C101.053 23.3081 101.88 23.1792 102.546 22.9214C103.223 22.6636 103.813 22.2393 104.318 21.6484C104.329 21.6377 104.356 21.6055 104.399 21.5518C104.453 21.4873 104.506 21.4443 104.56 21.4229C104.614 21.4014 104.673 21.396 104.737 21.4067L105.446 21.7451C105.554 21.7881 105.607 21.8525 105.607 21.9385C105.607 22.0029 105.575 22.0942 105.511 22.2124C104.931 23.2222 104.082 24.0171 102.965 24.5972C101.848 25.1772 100.473 25.4673 98.8398 25.4673ZM100.902 15.3159C100.902 13.4575 100.714 12.1147 100.338 11.2876C99.9624 10.4497 99.3608 10.0308 98.5337 10.0308C97.6636 10.0308 96.9116 10.4658 96.2778 11.3359C95.6548 12.1953 95.2734 13.522 95.1338 15.3159H100.902ZM109.072 25C108.9 25 108.766 24.9302 108.669 24.7905C108.572 24.6401 108.524 24.4897 108.524 24.3394C108.524 24.1567 108.562 24.0171 108.637 23.9204C108.712 23.8237 108.852 23.7646 109.056 23.7432C110.194 23.6035 110.764 23.2598 110.764 22.7119V12.4639C110.764 11.9697 110.672 11.5938 110.49 11.3359C110.307 11.0781 110.092 10.9062 109.845 10.8203C109.609 10.7344 109.297 10.6646 108.911 10.6108C108.599 10.5679 108.417 10.5356 108.363 10.5142C108.234 10.4604 108.137 10.3853 108.073 10.2886C108.008 10.1919 107.976 10.0522 107.976 9.86963C107.976 9.71924 108.008 9.56885 108.073 9.41846C108.148 9.25732 108.245 9.17139 108.363 9.16064C110.876 9.01025 113.148 8.93506 115.179 8.93506C115.286 8.93506 115.388 8.9834 115.485 9.08008C115.582 9.17676 115.641 9.34326 115.662 9.57959V11.3843C115.909 11.0942 116.371 10.7344 117.048 10.3047C117.725 9.86426 118.509 9.48291 119.4 9.16064C120.303 8.82764 121.189 8.66113 122.059 8.66113C123.649 8.66113 124.911 9.00488 125.846 9.69238C126.78 10.3691 127.248 11.626 127.248 13.4629V22.1802C127.248 22.7817 127.398 23.1738 127.699 23.3564C128 23.5391 128.311 23.6465 128.633 23.6787C128.966 23.7109 129.187 23.7324 129.294 23.7432C129.487 23.7646 129.622 23.8184 129.697 23.9043C129.783 23.9795 129.826 24.1245 129.826 24.3394C129.826 24.4897 129.777 24.6401 129.681 24.7905C129.584 24.9302 129.45 25 129.278 25H120.625C120.453 25 120.319 24.9302 120.222 24.7905C120.125 24.6401 120.077 24.4897 120.077 24.3394C120.077 24.146 120.109 24.0063 120.174 23.9204C120.238 23.8237 120.373 23.7646 120.577 23.7432C120.974 23.7002 121.329 23.5874 121.64 23.4048C121.962 23.2222 122.124 22.9912 122.124 22.7119V13.5435C122.124 13.1245 122.091 12.7485 122.027 12.4155C121.962 12.0825 121.785 11.7817 121.495 11.5132C121.216 11.2446 120.786 11.1104 120.206 11.1104C119.658 11.1104 119.094 11.2178 118.514 11.4326C117.945 11.6367 117.418 11.8945 116.935 12.2061C116.462 12.5176 116.092 12.8237 115.823 13.1245V22.1802C115.823 22.6099 115.898 22.9375 116.049 23.1631C116.21 23.3779 116.403 23.5229 116.629 23.5981C116.854 23.6626 117.145 23.7109 117.499 23.7432C117.735 23.7646 117.891 23.813 117.966 23.8882C118.042 23.9526 118.079 24.103 118.079 24.3394C118.079 24.479 118.025 24.624 117.918 24.7744C117.821 24.9248 117.692 25 117.531 25H109.072ZM138.092 25.4834C136.545 25.4834 135.31 25.1826 134.386 24.5811C133.473 23.9795 133.016 22.9214 133.016 21.4067V10.7397H131.292C131.185 10.729 131.093 10.6484 131.018 10.498C130.943 10.3369 130.905 10.1812 130.905 10.0308C130.905 9.8374 130.938 9.67627 131.002 9.54736C131.077 9.41846 131.179 9.33252 131.308 9.28955L133.322 8.69336C133.569 8.63965 133.849 8.4248 134.16 8.04883C134.482 7.66211 134.783 7.16797 135.062 6.56641C135.342 5.9541 135.562 5.28809 135.723 4.56836C135.82 4.14941 136.233 3.93994 136.964 3.93994C137.78 3.93994 138.188 4.12256 138.188 4.48779V8.9834H141.75C141.868 8.99414 141.959 9.05322 142.023 9.16064C142.099 9.26807 142.136 9.3916 142.136 9.53125C142.136 9.86426 142.083 10.1436 141.975 10.3691C141.878 10.5947 141.771 10.7075 141.653 10.7075H138.188V19.9727C138.188 20.8857 138.231 21.584 138.317 22.0674C138.414 22.54 138.564 22.8677 138.769 23.0503C138.983 23.2222 139.29 23.3081 139.687 23.3081C140.042 23.3081 140.46 23.2383 140.944 23.0986C141.427 22.959 141.873 22.7871 142.281 22.583C142.346 22.5508 142.437 22.6152 142.555 22.7764C142.673 22.9375 142.765 23.1147 142.829 23.3081C142.894 23.4907 142.894 23.6035 142.829 23.6465C142.561 23.9365 142.142 24.2266 141.572 24.5166C141.014 24.7959 140.412 25.0269 139.768 25.2095C139.134 25.3921 138.575 25.4834 138.092 25.4834ZM151.627 25.4834C150.843 25.4834 150.112 25.3813 149.436 25.1772C148.759 24.9731 148.184 24.7529 147.711 24.5166C147.54 24.4307 147.373 24.3877 147.212 24.3877C147.019 24.3877 146.874 24.4146 146.777 24.4683C146.68 24.522 146.583 24.6079 146.487 24.7261C146.379 24.855 146.272 24.9463 146.165 25C146.057 25.0645 145.896 25.0967 145.681 25.0967C145.466 25.0967 145.273 25.0537 145.101 24.9678C144.94 24.8711 144.859 24.7529 144.859 24.6133L144.795 22.7764C144.741 20.8428 144.714 19.833 144.714 19.7471C144.714 19.5107 144.795 19.3389 144.956 19.2314C145.128 19.1133 145.327 19.0542 145.552 19.0542C145.735 19.0542 145.896 19.0864 146.036 19.1509C146.175 19.2153 146.261 19.3013 146.293 19.4087C146.476 20.0532 146.75 20.7568 147.115 21.5195C147.298 21.8955 147.572 22.2822 147.937 22.6797C148.302 23.0664 148.78 23.4048 149.371 23.6948C149.973 23.9741 150.66 24.1138 151.434 24.1138C152.336 24.1138 153.04 23.958 153.544 23.6465C154.06 23.335 154.318 22.8784 154.318 22.2769C154.318 21.7827 154.173 21.353 153.883 20.9878C153.604 20.6118 153.12 20.2466 152.433 19.8921C151.756 19.5376 150.8 19.1401 149.564 18.6997C148.308 18.2593 147.239 17.6309 146.358 16.8145C145.488 15.998 145.053 14.9507 145.053 13.6724C145.053 12.7485 145.348 11.9053 145.939 11.1426C146.541 10.3691 147.362 9.76221 148.404 9.32178C149.457 8.88135 150.623 8.66113 151.901 8.66113C152.502 8.66113 153.045 8.72559 153.528 8.85449C154.012 8.97266 154.511 9.12842 155.027 9.32178C155.102 9.34326 155.22 9.38623 155.381 9.45068C155.553 9.50439 155.677 9.53125 155.752 9.53125C155.913 9.53125 156.021 9.50439 156.074 9.45068C156.139 9.38623 156.187 9.31104 156.219 9.2251C156.251 9.12842 156.284 9.05322 156.316 8.99951C156.38 8.89209 156.482 8.81152 156.622 8.75781C156.772 8.69336 156.934 8.66113 157.105 8.66113C157.353 8.66113 157.567 8.71484 157.75 8.82227C157.933 8.91895 158.024 9.05322 158.024 9.2251C158.024 9.354 158.019 9.47754 158.008 9.5957C157.986 10.1543 157.976 10.7612 157.976 11.4165C157.976 11.7603 157.992 12.0879 158.024 12.3994C158.045 12.7861 158.056 13.0493 158.056 13.189C158.056 13.4897 157.976 13.7153 157.814 13.8657C157.653 14.0054 157.449 14.0752 157.202 14.0752C157.03 14.0752 156.875 14.0483 156.735 13.9946C156.606 13.9302 156.525 13.8496 156.493 13.7529C156.278 13.1084 156.021 12.5283 155.72 12.0127C155.43 11.4863 154.984 11.0298 154.382 10.6431C153.792 10.2456 153.029 10.0469 152.094 10.0469C151.46 10.0469 150.902 10.1865 150.418 10.4658C149.946 10.7451 149.709 11.1963 149.709 11.8193C149.709 12.3027 149.838 12.7217 150.096 13.0762C150.354 13.4307 150.741 13.7476 151.256 14.0269C151.783 14.3062 152.481 14.5908 153.351 14.8809C155.167 15.4824 156.606 16.2129 157.669 17.0723C158.744 17.9209 159.281 19.0649 159.281 20.5044C159.281 22.1265 158.625 23.3618 157.315 24.2104C156.004 25.0591 154.108 25.4834 151.627 25.4834Z" fill="white"/>
</svg>
